<svg
   width="200"
   height="100"
   viewBox="0 0 200 100"
   version="1.1">
  <rect
     width="100%"
     height="100%" />
  <g
     id="cc"
     opacity="0.0"
     transform="translate(0,-10)">
    <circle
       fill="#ffffff"
       cx="44.17844"
       cy="35.000938"
       r="18.022781" />
    <path
       d="m 43.963437,15 c 5.594462,0 10.357662,1.953155 14.285848,5.857591 1.880029,1.880655 3.309427,4.030063 4.285692,6.446351 C 63.510617,29.720855 64,32.285895 64,35.000312 c 0,2.738168 -0.483133,5.303833 -1.446273,7.695746 -0.96439,2.392537 -2.387537,4.50632 -4.267566,6.339474 -1.951906,1.928155 -4.166315,3.405053 -6.643229,4.428819 C 49.167268,54.488117 46.607228,55 43.964687,55 41.322146,55 38.792106,54.494992 36.375193,53.481851 33.958905,52.470586 31.791997,51.006188 29.875092,49.089908 27.958187,47.173628 26.500039,45.012344 25.500023,42.607306 24.500008,40.202269 24,37.667229 24,35.000312 c 0,-2.643166 0.505633,-5.184456 1.517523,-7.625119 1.011891,-2.440663 2.482539,-4.625072 4.410694,-6.553852 C 33.737652,16.94128 38.41585,15 43.963437,15 Z m 0.0725,3.607556 c -4.571322,0 -8.417007,1.59565 -11.53643,4.7857 -1.5719,1.59565 -2.780044,3.386928 -3.625057,5.375084 -0.846263,1.988156 -1.268145,4.065689 -1.268145,6.232597 0,2.143159 0.421882,4.208816 1.268145,6.195722 0.845638,1.989406 2.053157,3.763184 3.625057,5.322584 1.571274,1.560024 3.344427,2.749417 5.321958,3.57193 1.975656,0.821263 4.047563,1.231895 6.214472,1.231895 2.142533,0 4.218816,-0.415632 6.233222,-1.249395 2.011907,-0.834388 3.825685,-2.035657 5.44571,-3.606931 3.118799,-3.047548 4.677574,-6.868858 4.677574,-11.46518 0,-2.214409 -0.405007,-4.309442 -1.214394,-6.285723 -0.808138,-1.976281 -1.987531,-3.737558 -3.533806,-5.286332 -3.2163,-3.214426 -7.084485,-4.821951 -11.608306,-4.821951 z m -0.250629,13.07208 -2.679417,1.393146 c -0.286254,-0.594384 -0.636885,-1.011891 -1.053141,-1.250019 -0.416882,-0.237504 -0.803763,-0.356881 -1.161268,-0.356881 -1.785028,0 -2.678792,1.178144 -2.678792,3.53568 0,1.071267 0.226253,1.927531 0.678135,2.570666 0.452507,0.643135 1.119393,0.965015 2.000657,0.965015 1.166893,0 1.988156,-0.571884 2.465038,-1.714402 l 2.463789,1.250019 c -0.523759,0.976891 -1.25002,1.744403 -2.178784,2.303786 -0.927515,0.560009 -1.951906,0.839389 -3.071299,0.839389 -1.785652,0 -3.226925,-0.546884 -4.321942,-1.643151 -1.095017,-1.095017 -1.642526,-2.618791 -1.642526,-4.570697 0,-1.905029 0.553759,-3.416303 1.660651,-4.535695 1.106893,-1.118768 2.505664,-1.678777 4.196941,-1.678777 2.476914,-0.0012 4.250066,0.96314 5.321958,2.891921 z m 11.535805,0 -2.643166,1.393146 c -0.285629,-0.594384 -0.63751,-1.011891 -1.053766,-1.250019 -0.417507,-0.237504 -0.816888,-0.356881 -1.196269,-0.356881 -1.785653,0 -2.679417,1.178144 -2.679417,3.53568 0,1.071267 0.226879,1.927531 0.678761,2.570666 0.451882,0.643135 1.118142,0.965015 2.000656,0.965015 1.165643,0 1.987531,-0.571884 2.463163,-1.714402 l 2.500039,1.250019 c -0.546883,0.976891 -1.285645,1.744403 -2.213159,2.303786 -0.928765,0.560009 -1.940655,0.839389 -3.035673,0.839389 -1.810028,0 -3.255676,-0.546884 -4.338192,-1.643151 -1.085017,-1.095017 -1.626276,-2.618791 -1.626276,-4.570697 0,-1.905029 0.553134,-3.416303 1.661276,-4.535695 1.106267,-1.118768 2.505039,-1.678777 4.195691,-1.678777 2.476288,-0.0012 4.239441,0.96314 5.286332,2.891921 z" />
  </g>
  <g
     id="by"
     opacity="0.0"
     transform="translate(0,-10)">
    <circle
       fill="#ffffff"
       cx="100.08562"
       cy="35.19125"
       r="17.672499" />
    <g
       transform="matrix(0.625,0,0,0.625,76.5625,17.1875)">
      <path
         d="m 37.443,-3.5 c 8.988,0 16.57,3.085 22.742,9.257 6.208,6.21 9.315,13.791 9.315,22.743 0,8.991 -3.049,16.476 -9.145,22.456 C 53.879,57.319 46.242,60.5 37.443,60.5 28.794,60.5 21.29,57.356 14.929,51.07 8.644,44.784 5.5,37.262 5.5,28.5 5.5,19.739 8.644,12.158 14.929,5.758 21.101,-0.415 28.604,-3.5 37.443,-3.5 Z m 0.114,5.772 c -7.276,0 -13.428,2.553 -18.457,7.657 -5.22,5.334 -7.829,11.525 -7.829,18.572 0,7.086 2.59,13.22 7.77,18.398 5.181,5.182 11.352,7.771 18.514,7.771 7.123,0 13.334,-2.607 18.629,-7.828 5.029,-4.838 7.543,-10.952 7.543,-18.343 0,-7.276 -2.553,-13.465 -7.656,-18.571 C 50.967,4.824 44.795,2.272 37.557,2.272 Z m 8.572,18.285 V 33.642 H 42.473 V 49.184 H 32.529 V 33.643 H 28.873 V 20.557 c 0,-0.572 0.2,-1.057 0.599,-1.457 0.401,-0.399 0.887,-0.6 1.457,-0.6 h 13.144 c 0.533,0 1.01,0.2 1.428,0.6 0.417,0.4 0.628,0.886 0.628,1.457 z M 33.042,12.329 c 0,-3.008 1.485,-4.514 4.458,-4.514 2.973,0 4.457,1.504 4.457,4.514 0,2.971 -1.486,4.457 -4.457,4.457 -2.971,0 -4.458,-1.486 -4.458,-4.457 z" />
    </g>
  </g>
  <g
     id="sa"
     opacity="0.0"
     transform="translate(0,-10)">
    <circle
       fill="#ffffff"
       cx="155.6525"
       cy="35.081875"
       r="18.190624" />
    <g
       transform="matrix(0.625,0,0,0.625,132.5625,17.1875)">
      <path
         d="m 37.443,-3.5 c 8.951,0 16.531,3.105 22.742,9.315 6.208,6.172 9.315,13.733 9.315,22.685 0,8.954 -3.049,16.457 -9.145,22.514 C 53.918,57.338 46.279,60.5 37.443,60.5 28.794,60.5 21.29,57.357 14.929,51.071 8.644,44.786 5.5,37.264 5.5,28.501 5.5,19.778 8.644,12.216 14.929,5.816 21.138,-0.395 28.643,-3.5 37.443,-3.5 Z m 0.114,5.772 c -7.276,0 -13.428,2.572 -18.457,7.715 -5.22,5.296 -7.829,11.467 -7.829,18.513 0,7.125 2.59,13.257 7.77,18.4 5.181,5.182 11.352,7.771 18.514,7.771 7.123,0 13.334,-2.609 18.629,-7.828 5.029,-4.876 7.543,-10.99 7.543,-18.343 0,-7.313 -2.553,-13.485 -7.656,-18.513 C 51.004,4.842 44.832,2.272 37.557,2.272 Z M 23.271,23.985 c 0.609,-3.924 2.189,-6.962 4.742,-9.114 2.552,-2.152 5.656,-3.228 9.314,-3.228 5.027,0 9.029,1.62 12,4.856 2.971,3.238 4.457,7.391 4.457,12.457 0,4.915 -1.543,9 -4.627,12.256 -3.088,3.256 -7.086,4.886 -12.002,4.886 -3.619,0 -6.743,-1.085 -9.371,-3.257 -2.629,-2.172 -4.209,-5.257 -4.743,-9.257 H 31.1 c 0.19,3.886 2.533,5.829 7.029,5.829 2.246,0 4.057,-0.972 5.428,-2.914 1.373,-1.942 2.059,-4.534 2.059,-7.771 0,-3.391 -0.629,-5.971 -1.885,-7.743 -1.258,-1.771 -3.066,-2.657 -5.43,-2.657 -4.268,0 -6.667,1.885 -7.2,5.656 h 2.343 l -6.342,6.343 -6.343,-6.343 z" />
    </g>
  </g>
  <g
     id="text"
     opacity="0.0">
    <path
       d="m 36.255876,84.51357 q 3.181546,0 4.4208,-3.193462 l 3.062386,1.155843 q -0.989017,2.430844 -2.90748,3.622434 -1.906544,1.179674 -4.575706,1.179674 -4.051408,0 -6.267766,-2.287853 -2.204442,-2.299769 -2.204442,-6.422672 0,-4.134818 2.132947,-6.351177 Q 32.049562,70 36.100969,70 q 2.955144,0 4.814025,1.19159 1.858881,1.179675 2.609584,3.479444 l -3.098137,0.846029 q -0.393224,-1.263086 -1.549067,-2.001872 -1.143926,-0.750702 -2.70491,-0.750702 -2.383181,0 -3.622434,1.477572 -1.227339,1.477572 -1.227339,4.325473 0,2.895564 1.263086,4.4208 1.275002,1.525236 3.670099,1.525236 z"
       fill="#ffffff" />
    <path
       fill="#ffffff"
       d="m 53.891415,84.51357 q 3.181544,0 4.420798,-3.193462 l 3.062386,1.155843 q -0.989018,2.430844 -2.907477,3.622434 -1.906545,1.179674 -4.575707,1.179674 -4.05141,0 -6.267767,-2.287853 -2.204441,-2.299769 -2.204441,-6.422672 0,-4.134818 2.132944,-6.351177 Q 49.685096,70 53.736506,70 q 2.955144,0 4.814022,1.19159 1.858884,1.179675 2.609586,3.479444 l -3.098137,0.846029 q -0.393225,-1.263086 -1.549066,-2.001872 -1.143927,-0.750702 -2.704908,-0.750702 -2.383181,0 -3.622435,1.477572 -1.227339,1.477572 -1.227339,4.325473 0,2.895564 1.263085,4.4208 1.274999,1.525236 3.670101,1.525236 z" />
    <path
       fill="#ffffff"
       d="m 69.77531,82.166137 v -2.907481 h 6.19627 v 2.907481 z" />
    <path
       fill="#ffffff"
       d="m 100.25619,82.249548 q 0,2.287854 -1.715888,3.539023 -1.71589,1.25117 -4.766361,1.25117 H 85.37323 V 70.250234 h 7.685754 q 3.074307,0 4.647204,1.072431 1.584817,1.060515 1.584817,3.145799 0,1.429908 -0.798369,2.418928 -0.786448,0.977104 -2.407011,1.322665 2.037623,0.238318 3.098138,1.286918 1.072427,1.036683 1.072427,2.752573 z M 95.751983,74.9451 q 0,-1.132011 -0.726873,-1.608647 -0.714951,-0.476636 -2.132944,-0.476636 h -4.003744 v 4.15865 h 4.027574 q 1.48949,0 2.156781,-0.512384 0.679206,-0.5243 0.679206,-1.560983 z m 0.977102,7.030382 q 0,-2.359348 -3.38412,-2.359348 h -4.456543 v 4.814025 h 4.587622 q 1.69206,0 2.466593,-0.607711 0.786448,-0.619627 0.786448,-1.846966 z" />
    <path
       fill="#ffffff"
       d="m 111.27841,80.152349 v 6.887392 h -3.50328 v -6.887392 l -5.98179,-9.902115 h 3.68202 l 4.02757,7.101878 4.07524,-7.101878 h 3.68201 z" />
    <path
       fill="#ffffff"
       d="m 124.96977,82.166137 v -2.907481 h 6.19627 v 2.907481 z" />
    <path
       fill="#ffffff"
       d="m 154.25906,82.201885 q 0,2.466592 -1.83504,3.777341 -1.82314,1.298833 -5.36216,1.298833 -3.22921,0 -5.06426,-1.143926 -1.83505,-1.143927 -2.35935,-3.467528 l 3.39604,-0.560048 q 0.34555,1.334582 1.34649,1.942293 1.00094,0.595795 2.77641,0.595795 3.68201,0 3.68201,-2.24019 0,-0.714954 -0.42897,-1.179675 -0.41706,-0.464719 -1.19159,-0.774533 -0.76262,-0.309813 -2.94323,-0.750702 -1.88271,-0.440889 -2.6215,-0.703038 -0.73879,-0.274066 -1.33458,-0.631543 -0.59579,-0.369393 -1.01285,-0.881777 -0.41706,-0.512384 -0.65537,-1.203506 -0.22641,-0.691123 -0.22641,-1.584816 0,-2.275937 1.70398,-3.479443 Q 143.84457,70 147.10952,70 q 3.12197,0 4.68296,0.977103 1.57289,0.977105 2.0257,3.22921 l -3.40795,0.464721 q -0.26215,-1.084348 -1.07243,-1.632479 -0.79837,-0.548132 -2.29977,-0.548132 -3.19346,0 -3.19346,2.001872 0,0.655375 0.33364,1.072432 0.34556,0.417056 1.01285,0.714954 0.66729,0.285982 2.70492,0.72687 2.41892,0.512384 3.45561,0.953272 1.0486,0.428973 1.6563,1.012852 0.60772,0.571963 0.92945,1.382245 0.32172,0.798365 0.32172,1.846965 z" />
    <path
       fill="#ffffff"
       d="m 168.73689,87.039741 -1.48949,-4.289725 h -6.39884 l -1.48949,4.289725 h -3.51519 l 6.12477,-16.789507 h 4.14674 l 6.10094,16.789507 z m -4.69487,-14.203757 -0.0715,0.262151 q -0.11916,0.428972 -0.28599,0.977103 -0.16681,0.548132 -2.04953,6.029448 h 4.82594 l -1.65631,-4.825941 -0.51238,-1.620563 z" />
  </g>
</svg>
